<svg width="83" height="83" viewBox="0 0 83 83" fill="none" xmlns="http://www.w3.org/2000/svg">
<circle cx="41.5" cy="41.5" r="41.5" fill="black"/>
<path d="M40.78 63.72C37.42 63.72 34.2 63.28 31.12 62.4C28.04 61.48 25.56 60.3 23.68 58.86L26.98 51.54C28.78 52.82 30.9 53.88 33.34 54.72C35.82 55.52 38.32 55.92 40.84 55.92C42.76 55.92 44.3 55.74 45.46 55.38C46.66 54.98 47.54 54.44 48.1 53.76C48.66 53.08 48.94 52.3 48.94 51.42C48.94 50.3 48.5 49.42 47.62 48.78C46.74 48.1 45.58 47.56 44.14 47.16C42.7 46.72 41.1 46.32 39.34 45.96C37.62 45.56 35.88 45.08 34.12 44.52C32.4 43.96 30.82 43.24 29.38 42.36C27.94 41.48 26.76 40.32 25.84 38.88C24.96 37.44 24.52 35.6 24.52 33.36C24.52 30.96 25.16 28.78 26.44 26.82C27.76 24.82 29.72 23.24 32.32 22.08C34.96 20.88 38.26 20.28 42.22 20.28C44.86 20.28 47.46 20.6 50.02 21.24C52.58 21.84 54.84 22.76 56.8 24L53.8 31.38C51.84 30.26 49.88 29.44 47.92 28.92C45.96 28.36 44.04 28.08 42.16 28.08C40.28 28.08 38.74 28.3 37.54 28.74C36.34 29.18 35.48 29.76 34.96 30.48C34.44 31.16 34.18 31.96 34.18 32.88C34.18 33.96 34.62 34.84 35.5 35.52C36.38 36.16 37.54 36.68 38.98 37.08C40.42 37.48 42 37.88 43.72 38.28C45.48 38.68 47.22 39.14 48.94 39.66C50.7 40.18 52.3 40.88 53.74 41.76C55.18 42.64 56.34 43.8 57.22 45.24C58.14 46.68 58.6 48.5 58.6 50.7C58.6 53.06 57.94 55.22 56.62 57.18C55.3 59.14 53.32 60.72 50.68 61.92C48.08 63.12 44.78 63.72 40.78 63.72Z" fill="#FCFEFB"/>
</svg>
